<svg t="1648327359680" class="icon" viewBox="0 0 1099 1024" version="1.1" xmlns="http://www.w3.org/2000/svg" p-id="67834" width="200" height="200"><path d="M504.082404 398.387927l77.285729-62.575526A377.263158 377.263158 0 0 1 769.948361 254.92915l122.193768-15.944945-15.944945 122.193768a377.263158 377.263158 0 0 1-80.88325 188.572606l-62.579337 77.28954 2.873443 29.610953a161.684211 161.684211 0 0 1-53.20063 136.16465l-103.493518 92.487542a32.336842 32.336842 0 0 1-53.840867-22.408288l-4.717935-89.473094a32.336842 32.336842 0 0 0-24.843475-29.759579l-31.897513-7.55327a92.375579 92.375579 0 0 1-68.596801-68.596801l-7.55708-31.901323a32.336842 32.336842 0 0 0-29.76339-24.839664l-89.469283-4.721747a32.336842 32.336842 0 0 1-22.404478-53.837056l92.483732-103.497329a161.684211 161.684211 0 0 1 136.16465-53.20063l29.610952 2.873444z" fill="#FBAA35" p-id="67835"></path><path d="M865.846689 242.414045l26.29544-3.42984-15.944945 122.193768a377.263158 377.263158 0 0 1-80.88325 188.572606l-62.579337 77.28954 2.873443 29.610953a161.684211 161.684211 0 0 1-53.20063 136.16465l-103.493518 92.487542a32.336842 32.336842 0 0 1-52.781427-15.739155 32.309895 32.309895 0 0 0 29.915827-7.126445l103.493518-92.487543a161.684211 161.684211 0 0 0 53.20063-136.16465l-2.869633-29.607141 62.571715-77.28954a377.263158 377.263158 0 0 0 80.883251-188.580228l12.515105-95.898328z m-369.412828 501.476914l-0.918435-0.232467-31.901324-7.549459a92.359411 92.359411 0 0 1-54.450616-37.011785 92.2624 92.2624 0 0 0 31.585016 14.146185l31.897513 7.55327a32.342232 32.342232 0 0 1 23.780224 23.094256z m-132.067897-132.067897a32.3584 32.3584 0 0 0-6.669133-1.051817l-89.469283-4.721747a32.353011 32.353011 0 0 1-29.538545-23.913607 32.471579 32.471579 0 0 0 6.672944 1.048007l89.473094 4.717935a32.336842 32.336842 0 0 1 29.530923 23.921229z" fill="#F77A1A" p-id="67836"></path><path d="M871.216294 242.570293L755.866962 254.948205C687.670309 262.261386 623.738091 288.442499 571.135777 330.595233l-0.186736 0.148626c-2.282749 1.825437-5.697345 1.390991-7.633299-0.97941-1.932143-2.36659-1.650134-5.765942 0.624993-7.591379l0.190547-0.152437c54.115254-43.368422 119.911019-70.30791 190.085546-77.838315l129.255428-13.867986-10.087541 94.050025a5.12 5.12 0 0 1-5.9603 4.519767c-2.972528-0.457312-5.125705-3.220239-4.801776-6.173712l8.593655-80.140119z m-135.779746 409.099889a5.12 5.12 0 0 1-4.725557 5.792619 5.723621 5.723621 0 0 1-6.025086-5.003756l-3.845232-32.000408 62.354493-77.811638c42.148923-52.590881 68.330036-116.530721 75.643216-184.727374a5.12 5.12 0 0 1 5.956489-4.523578c2.972528 0.457312 5.125705 3.220239 4.805587 6.177523-7.522783 70.174527-34.466082 135.966481-77.834503 190.081736l-59.644919 74.43134 3.315512 27.583536z m-11.158413 41.52393a5.130779 5.130779 0 0 1 6.116548-4.310166 5.712842 5.712842 0 0 1 4.599797 6.329961c-5.342929 37.476719-23.418186 71.527409-51.420924 96.420425l-52.648045 46.78683c-2.179854 1.935954-5.605883 1.665378-7.648543-0.605939-2.046471-2.275127-1.928332-5.693534 0.24771-7.633299l52.648045-46.78683c26.196356-23.284803 43.105468-55.140395 48.105412-90.200982z m-147.765131 178.770885c2.179854-1.935954 5.605883-1.665378 7.652354 0.60975 2.04266 2.271316 1.932143 5.689724-0.251521 7.629488l-2.061715 1.833059c-15.27041 13.570734-39.252614 11.661456-53.555047-4.264434a39.758147 39.758147 0 0 1-10.12565-23.463917l-6.85968-89.938028c-0.910813-12.008251-9.611174-22.347313-21.360282-25.392249l-32.206198-8.342133c-36.325817-9.405384-65.193637-38.273204-74.599021-74.599021l-8.342133-32.198577c-3.041125-11.752919-13.383998-20.45709-25.388439-21.371714l-89.934217-6.855869c-20.918213-1.589159-37.377635-19.793988-36.767885-40.655038a36.125642 36.125642 0 0 1 9.035723-23.021848l30.304542-34.100232c1.939765-2.176043 5.354361-2.290371 7.6333-0.247711 2.271316 2.04266 2.549514 5.468689 0.605938 7.648543l-30.304542 34.100232a25.8048 25.8048 0 0 0-6.455721 16.440367c-0.430635 14.90456 11.322283 27.907465 26.264953 29.046934l89.934217 6.855869c16.810027 1.276663 31.283952 13.456406 35.548387 29.908206l8.338322 32.210009c8.36881 32.316715 34.054501 58.002406 66.375027 66.375027l32.202387 8.338322c16.451799 4.256813 28.635353 18.734549 29.912016 35.544575l6.85968 89.938028a28.397137 28.397137 0 0 0 7.233152 16.760486c10.217112 11.375636 27.343447 12.73995 38.250338 3.044935l2.061715-1.833059z m-44.915661-523.873769c2.278938-1.821626 5.693534-1.38718 7.629489 0.983221 1.932143 2.36659 1.653945 5.762131-0.621182 7.587568l-45.273889 36.280086-32.004219-3.841421c-49.869874-5.998409-98.497384 12.019684-130.936049 48.513182l-21.280252 23.947906c-1.935954 2.179854-5.354361 2.290371-7.629489 0.251521-2.275127-2.046471-2.549514-5.468689-0.609749-7.652354l21.280252-23.947905c34.671872-39.008714 86.653003-58.269172 139.967962-51.859182l27.579724 3.311701 41.897402-33.574323z m75.780411 497.643115c2.275127-1.825437 5.693534-1.394802 7.629488 0.975599 1.935954 2.362779 1.661567 5.762131-0.61356 7.587568l-12.427454 9.988457c-2.282749 1.825437-5.697345 1.390991-7.63711-0.975599-1.935954-2.362779-1.661567-5.762131 0.617371-7.59138l12.431265-9.984645z m-325.225056-372.861723c2.027417-2.103635 5.449635-2.096013 7.648543 0.026677 2.210341 2.118879 2.355157 5.548719 0.335363 7.652354l-7.309371 7.629488c-2.027417 2.103635-5.449635 2.096013-7.648543-0.026676-2.20653-2.12269-2.355157-5.548719-0.335362-7.652354l7.313181-7.625678z m578.484445-138.565538a5.136168 5.136168 0 0 1 6.268985-4.096753c2.942041 0.655481 4.908482 3.55179 4.394007 6.467154l-1.684433 9.519711a5.136168 5.136168 0 0 1-6.268985 4.096754c-2.942041-0.655481-4.912293-3.547979-4.394007-6.467154l1.684433-9.519712z" fill="#000000" p-id="67837"></path><path d="M739.15983 277.890024a5.389474 5.389474 0 1 1 2.560947 10.472445l-4.862751 1.189011a189.838821 189.838821 0 0 0-39.222126 14.306244 5.389474 5.389474 0 0 1-4.782721-9.660716 200.617768 200.617768 0 0 1 41.4439-15.117973l4.862751-1.189011zM646.287384 318.080128a5.389474 5.389474 0 0 1 5.552529 9.233891l-1.791138 1.082305a287.329011 287.329011 0 0 0-25.342707 17.141579 5.389474 5.389474 0 1 1-6.512885-8.593655c8.448839-6.390935 17.221608-12.32837 26.299251-17.785626l1.79495-1.078494z m32.152845-17.313071a5.389474 5.389474 0 0 1 3.837609 10.072297l-1.501507 0.57164c-5.201924 1.977874-10.213301 4.420683-14.980779 7.282694a5.389474 5.389474 0 1 1-5.55253-9.241514 104.760589 104.760589 0 0 1 16.695699-8.113477l1.501508-0.57164zM455.489192 406.120311a5.389474 5.389474 0 0 1-0.476366 10.765887l-7.294127-0.320119a120.109811 120.109811 0 0 0-33.841088 3.323134 5.389474 5.389474 0 1 1-2.560947-10.472445 130.888758 130.888758 0 0 1 36.878402-3.616576l7.294126 0.320119z m-76.88177 16.592804a5.389474 5.389474 0 1 1 6.009842 8.94426 111.777684 111.777684 0 0 0-16.722376 13.749848l-2.256072 2.256073a5.389474 5.389474 0 1 1-7.621867-7.621867l2.256073-2.256073c5.609694-5.609694 11.752919-10.65537 18.330589-15.076052z m-20.845805 32.636833l-0.891759 0.93749a533.557895 533.557895 0 0 0-4.100564 4.390195l-0.575451 0.621182a5.389474 5.389474 0 1 1-7.911498-7.316992l0.567829-0.621182a544.336842 544.336842 0 0 1 4.192027-4.481658l0.891758-0.937489a5.389474 5.389474 0 1 1 7.827658 7.408454z m41.554417-42.865378a5.389474 5.389474 0 0 1 3.471761 10.201868l-0.811729 0.278198a40.976168 40.976168 0 0 0-7.111202 3.201184 5.389474 5.389474 0 1 1-5.339118-9.363463c2.8582-1.631079 5.861216-2.98015 8.974749-4.0434l0.811728-0.278198z" fill="#FFFFFF" p-id="67838"></path><path d="M352.864567 681.433572l12.012062 34.953881a75.452632 75.452632 0 0 0 46.824939 46.824938l34.953881 12.012062a26.947368 26.947368 0 0 1 10.293331 44.546001l-41.634447 41.634447a10.778947 10.778947 0 0 1-18.239128-5.754509l-2.789603-15.868727a21.557895 21.557895 0 0 0-27.023328-17.031061l-66.919991 18.665951a10.778947 10.778947 0 0 1-13.201073-13.536435l19.88545-65.083121a21.557895 21.557895 0 0 0-16.276496-27.419665l-19.10802-3.925262a10.778947 10.778947 0 0 1-5.449635-18.178152l42.129869-42.129869A26.947368 26.947368 0 0 1 352.864567 681.433572z" fill="#F77A1A" p-id="67839"></path><path d="M351.61077 684.24223l5.701156 19.451004a75.452632 75.452632 0 0 0 51.19608 51.196079l19.443382 5.693534a26.947368 26.947368 0 0 1 11.482342 44.919472l-38.989659 38.98966a10.778947 10.778947 0 0 1-18.322968-6.333772l-0.941301-7.785737a21.557895 21.557895 0 0 0-28.158987-17.892332l-58.657886 19.367164a10.778947 10.778947 0 0 1-13.532625-13.852743l20.358006-57.194489a21.557895 21.557895 0 0 0-17.095847-28.543891l-10.945-1.646323a10.778947 10.778947 0 0 1-6.009842-18.281047l39.557488-39.557489a26.947368 26.947368 0 0 1 44.919472 11.47472z" fill="#FBAA35" p-id="67840"></path><path d="M331.370903 664.68833c-8.624142-8.624142-22.880844-8.353566-31.840349 0.605939l-44.847064 44.847064c-0.796485 0.796485-1.341449 1.798761-1.585348 2.881065-0.689779 3.052558 1.215688 5.994598 4.253002 6.562428l19.874017 3.71566c0.861271 0.160059 1.711109 0.362039 2.549515 0.605938 14.774989 4.256813 22.846546 19.828286 18.014282 34.782389l-22.072926 68.375767a5.411032 5.411032 0 0 0 6.760596 6.935899l70.265989-20.838184c0.884137-0.259143 1.787328-0.483989 2.69433-0.659291 15.361872-2.983961 29.755768 6.966386 32.156656 22.217741l2.595246 16.512775a5.378695 5.378695 0 0 0 1.505319 2.976339c2.156988 2.156988 5.724022 2.088391 7.961039-0.148627l44.321156-44.321155c2.465674-2.465674 4.359708-5.442013 5.533475-8.704172 4.268245-11.836759-1.737786-24.527167-13.422107-28.345722l-36.264843-11.844381a80.022905 80.022905 0 0 1-51.398058-51.398059l-11.844381-36.264842a21.396211 21.396211 0 0 0-5.209546-8.494571z m27.774082 40.898937c6.920655 21.181168 23.357211 37.617723 44.54219 44.54219l36.261031 11.848192c17.522672 5.724022 26.53934 24.755823 20.136972 42.514773-1.760651 4.885617-4.599797 9.355841-8.300213 13.056257l-44.321155 44.321156c-6.718676 6.718676-17.412155 6.924466-23.88312 0.453501a16.136084 16.136084 0 0 1-4.519767-8.925206l-2.595245-16.512775c-1.436722-9.157673-10.072297-15.125595-19.290945-13.330644a17.321768 17.321768 0 0 0-1.615836 0.396337l-70.26599 20.830561c-9.031912 2.675275-18.246749-2.393266-20.575229-11.329904a16.922947 16.922947 0 0 1 0.297253-9.473981l22.072926-68.375767c2.896309-8.970937-1.943576-18.315346-10.807807-20.868671a16.437895 16.437895 0 0 0-1.528184-0.362039l-19.877829-3.719471c-9.100509-1.699676-14.813098-10.514365-12.762816-19.683471a17.699032 17.699032 0 0 1 4.767478-8.631764L291.725763 657.489477c13.441162-13.441162 34.820498-13.852743 47.758617-0.914624 3.563223 3.563223 6.234687 7.91912 7.808603 12.747572l11.848191 36.261032z" fill="#000000" p-id="67841"></path><path d="M704.579421 507.239617m-53.353068-53.353067a75.452632 75.452632 0 1 0 106.706135 106.706135 75.452632 75.452632 0 1 0-106.706135-106.706135Z" fill="#FFFFFF" p-id="67842"></path><path d="M614.046887 477.506715a5.389474 5.389474 0 1 1 10.510554 2.393266A69.998484 69.998484 0 0 0 643.322477 545.066942c27.362502 27.362502 71.721766 27.362502 99.084268 0s27.362502-71.721766 0-99.084268-71.721766-27.362502-99.084268 0c-5.495366 5.495366-9.965591 11.75673-13.326834 18.5783a5.389474 5.389474 0 0 1-9.672149-4.763666 80.745095 80.745095 0 0 1 15.377117-21.436501c31.569772-31.569772 82.758229-31.569772 114.328001 0 31.573583 31.573583 31.569772 82.758229 0 114.328002-31.569772 31.569772-82.754419 31.573583-114.328001 0a80.777432 80.777432 0 0 1-21.653724-75.182094z" fill="#000000" p-id="67843"></path><path d="M66.713012 483.512746l-0.537342-0.537342 0-35.037721a4.850526 4.850526 0 0 0-4.847507-4.847507l-10.784942 0a4.850526 4.850526 0 0 0-4.847507 4.847507l0 35.037721-0.537341 0.537342L10.124462 483.508935a4.850526 4.850526 0 0 0-4.851318 4.851318l0.003811 10.781131a4.850526 4.850526 0 0 0 4.847507 4.847507l35.033911 0.003811 0.537341 0.537342 0 35.030099a4.850526 4.850526 0 0 0 4.851318 4.851319l10.77732 0a4.850526 4.850526 0 0 0 4.851318-4.851319l0-35.030099 0.537342-0.537342 35.03391-0.003811a4.850526 4.850526 0 0 0 4.847508-4.847507l0.003811-10.781131a4.850526 4.850526 0 0 0-4.851319-4.851318l-35.03391 0.003811zM269.786219 973.55686l-0.541152-0.541153 0.003811-18.235316a4.850526 4.850526 0 0 0-4.851318-4.851318l-1.825438 0.003811a4.850526 4.850526 0 0 0-4.847507 4.847507l0 18.239127-0.533531 0.533531-18.242938 0.003811a4.850526 4.850526 0 0 0-4.847507 4.847507l-0.003811 1.825437a4.850526 4.850526 0 0 0 4.851318 4.851318l18.235317-0.003811 0.541152 0.541153 0 18.231505a4.850526 4.850526 0 0 0 4.851318 4.851318l1.825437 0.003811a4.850526 4.850526 0 0 0 4.847508-4.847507l0-18.239127 0.537341-0.537342 18.235317-0.003811a4.850526 4.850526 0 0 0 4.851318-4.851318l0-1.821626a4.850526 4.850526 0 0 0-4.851318-4.851318l-18.235317 0.003811zM836.784511 977.299196l-0.541153-0.541152 0.003811-23.479161a4.850526 4.850526 0 0 0-4.851318-4.851318l-4.618851 0a4.850526 4.850526 0 0 0-4.851318 4.851318l0 23.47535-0.541153 0.541152-23.47535 0a4.850526 4.850526 0 0 0-4.851318 4.851318l0 4.618852a4.850526 4.850526 0 0 0 4.851318 4.851318l23.47535 0 0.541153 0.541153 0 23.475349a4.850526 4.850526 0 0 0 4.855129 4.855129l4.618851 0a4.850526 4.850526 0 0 0 4.847507-4.847507l0-23.482971 0.541153-0.541153 23.475349 0a4.850526 4.850526 0 0 0 4.851319-4.851318l0.003811-4.615041a4.850526 4.850526 0 0 0-4.851319-4.851318l-23.47916-0.003811z" fill="#FBAA35" p-id="67844"></path><path d="M1058.935251 265.824609m-26.676534-26.676534a37.726316 37.726316 0 1 0 53.353068 53.353068 37.726316 37.726316 0 1 0-53.353068-53.353068Z" fill="#FBAA35" p-id="67845"></path><path d="M841.113731 20.556747m-12.957173-12.957174a18.324211 18.324211 0 1 0 25.914347 25.914348 18.324211 18.324211 0 1 0-25.914347-25.914348Z" fill="#FBAA35" p-id="67846"></path><path d="M529.531817 119.587662m-10.346684-10.346684a14.632421 14.632421 0 1 0 20.693368 20.693368 14.632421 14.632421 0 1 0-20.693368-20.693368Z" fill="#FBAA35" p-id="67847"></path><path d="M1011.995984 622.737576m-10.346684-10.346685a14.632421 14.632421 0 1 0 20.693368 20.693369 14.632421 14.632421 0 1 0-20.693368-20.693369Z" fill="#FBAA35" p-id="67848"></path><path d="M595.56386 960.138563m-10.346684-10.346684a14.632421 14.632421 0 1 0 20.693368 20.693368 14.632421 14.632421 0 1 0-20.693368-20.693368Z" fill="#FBAA35" p-id="67849"></path><path d="M1061.084617 773.151305m-7.191231-7.191231a10.169937 10.169937 0 1 0 14.382463 14.382463 10.169937 10.169937 0 1 0-14.382463-14.382463Z" fill="#FBAA35" p-id="67850"></path><path d="M226.532125 131.797893l-0.537341-0.537342L225.987162 107.663251a4.850526 4.850526 0 0 0-4.851318-4.851318l-4.679827 0a4.850526 4.850526 0 0 0-4.847507 4.847508l0 23.597299-0.541152 0.541153-23.593489-0.003811a4.850526 4.850526 0 0 0-4.851318 4.851318l0 4.679826a4.850526 4.850526 0 0 0 4.851318 4.851318l23.5973 0 0.537341 0.537342 0 23.597299a4.850526 4.850526 0 0 0 4.851318 4.851319l4.679827 0a4.850526 4.850526 0 0 0 4.851318-4.851319l-0.003811-23.593488 0.541152-0.541153 23.5973 0a4.850526 4.850526 0 0 0 4.847507-4.847507l0-4.679826a4.850526 4.850526 0 0 0-4.851318-4.851318l-23.593489-0.003811z" fill="#FBAA35" p-id="67851"></path><path d="M49.529513 915.363907a5.389474 5.389474 0 1 1 0.003811-10.781131l280.256042 0a5.389474 5.389474 0 0 1-0.003811 10.781131l-280.256042 0z m297.923529 0a5.389474 5.389474 0 1 1 0-10.77732l62.697476 0a5.389474 5.389474 0 1 1 0 10.77732l-62.697476 0z m122.460533 0a5.389474 5.389474 0 1 1 0-10.77732l54.256259-0.003811a5.389474 5.389474 0 1 1 0 10.784942l-54.256259-0.003811z m-37.72824 0a5.389474 5.389474 0 1 1 0-10.77732l10.78113-0.003811a5.389474 5.389474 0 0 1-0.003811 10.781131l-10.777319 0z m114.145077 0a5.389474 5.389474 0 1 1 0-10.77732l173.549906 0a5.389474 5.389474 0 0 1 0 10.77732l-173.549906 0z m193.176213 0a5.389474 5.389474 0 1 1 0-10.77732l20.152216 0a5.389474 5.389474 0 1 1 0 10.77732l-20.152216 0z m61.256943 0a5.389474 5.389474 0 1 1 0-10.77732l41.020887 0a5.389474 5.389474 0 0 1 0 10.77732l-41.020887 0z m69.36661 0a5.389474 5.389474 0 0 1 0-10.77732l3.993858 0a5.389474 5.389474 0 0 1 0 10.77732l-3.993858 0z m32.04995 0a5.389474 5.389474 0 1 1 0-10.77732l130.04048-0.003811a5.389474 5.389474 0 1 1 0 10.784942l-130.04048-0.003811z" fill="#000000" p-id="67852"></path></svg>
