<svg t="1648326955584" class="icon" viewBox="0 0 1024 1024" version="1.1" xmlns="http://www.w3.org/2000/svg" p-id="25642" width="200" height="200"><path d="M259.52 153.28L512 128l252.48 25.28L960 401.856 512 896 64 401.856 259.52 153.28z" fill="#FDB300" p-id="25643"></path><path d="M245.44 401.856L512 896 64 401.856h181.44z m533.12 0L512 896l448-494.144" fill="#EA6C00" p-id="25644"></path><path d="M245.44 401.856h533.12L512 896" fill="#FDAD00" p-id="25645"></path><path d="M512 128l-252.512 25.28-14.016 248.576L512 128z m0 0l252.48 25.28 14.08 248.576" fill="#FDD231" p-id="25646"></path><path d="M960 401.856L764.512 153.28l14.016 248.576H960z m-896 0L259.488 153.28l-14.016 248.576" fill="#FDAD00" p-id="25647"></path><path d="M512 128l-266.56 273.856h533.12" fill="#FEEEB7" p-id="25648"></path></svg>
